P2
# CREATOR: XV Version 3.10a  Rev: 12/29/94 (PNG patch 1.2)
25 25
255
  2   2   2   2   2   7   2   2   2   2   2   2   7   2   7   2   2 
  2   2   2   2   2   2   2   2   2   2   2   2   2   2   2   2   2 
  7   7   2   2   7   7   2   2   2   2   2   2   2   2   2   2   2 
  2   2   2   2   2   2   2   2   7  23 127 137  74  16   9   9   7 
  7   2   2   2   2   2   2   2   2   2   2   2   2   2   2   9  78 
181 189 195 181 156 189 176  92   9   2   2   2   2   2   2   7   2 
  2   2   2   2   2   2 145 197 206 197 124 155 173 173 166 161 156 
 92   9   9   2   2   2   7   2   2   2   2   2   2 153 192 217 141 
147 173 189 195 181 184 185 189 181 162 130   2   2   2   2   2   2 
  2   7   2 145 184 201 133 179 195 206 206 196 151 176 168 168 147 
173 171 153   9   2   2   2   2   7   9 151 179 150 145 183 206 206 
210 200 185  78  59  81  92  68 113 139 147 151   2   2   2   2   9 
124 124 147 151 189 206 210 210 195 181 127  47  32  78 145  59  23 
 68 102  92   2   7   2  23 108 134 168 173 195 201 215 206 187 176 
108 156 151 164 156 142  58   2   2   2   2   2   7   2  92 121 153 
181 179 201 217 216 181 147  32 166 124 117 124 124 117   2   2   2 
  2   2   2   2  45 134 121 183 195 206 217 210 195 147 111  58   9 
  7   2   2   2   2   2   7   2   2   2   2   9  92 161 141 195 201 
217 217 206 151 108  78   2   7   2   2   7   2   2   2   2   2   2 
  2   2  58 118 150 166 197 201 210 206 200 147   2   2   2   2   2 
  2   2   2   2   2   2   2   2   2   2  92 111 156 179 197 201 206 
206 183 141   2   2   2   2   2   2   2   2   2   2   2   2   2   2 
  2 108 127 168 184 206 206 206 206 173 102   7   7   2   2   2   2 
  2   2   2   2   2   2   2   2   2 117 141 168 184 195 201 206 195 
173 173   2   7   2   2   2   2   2   2   2   2   2   2   2   2   2 
124 145 159 184 195 201 201 195 183 161  78   9   2   2   2   2   2 
  2   2   2   2   2   2   2   2 133 145 151 177 192 195 195 189 179 
166 173  47   9   7   2   2   2   2   2   2   2   7   2   2   2 141 
145 156 168 184 184 184 189 179 166 173 133   9   7   9   2   2   2 
  2   9  78 102 124 115  78 141 145 163 164 177 176 179 184 179 179 
189 173 118  27   9  36  68 134 166 166 166 166 147 117 120 145 156 
163 164 176 184 184 184 189 189 192 189 181 166 159 161 166 168 179 
177 166 156 120  78   9 145 156 156 156 164 168 168 184 184 181 192 
192 192 189 187 189 184 183 173 161 147 117   9   2   2 137 151 151 
151 151 159 163 179 184 184 181 181 179 173 173 166 163 156 141 124 
 78   9   2   2   2 137 145 151 156 156 156 156 159 163 168 163 156 
156 141 134 130 127 115  36   7   2   2   2   2   2 