P2
# CREATOR: XV Version 3.10a  Rev: 12/29/94 (PNG patch 1.2)
25 25
255
255 255 255 255 255 255 255 255 255 255 255 255 255 255 255 255 255 
255 255 255 255 255 255 255 255 255 255 255 255 255 255 255 255 255 
255 255 255 255 255 255 255 255 255 255 255 255 255 255 255 255 255 
255 255 255 255 255 255 255 255 255 255 255 255 255 255 194  30  86 
194 245 255 255 255 255 255 255 255 255 255 255 255 255 255 255 255 
255 255 255 255 128 132  86  30  30  86  30 128 255 255 255 255 255 
255 255 255 255 255 255 255 255 255 255 255 194  30 183 183 183 183 
215  30  30 245 255 255 255 255 255 255 255 255 255 255 255 255 255 
255 128  30 183  30 183 215 215 215  86 215  30 245 255 255 255 255 
255 255 255 255 255 255 255 255 162 183  86 183 215 215  86  30  30 
 86 215  30 245 255 255 255 255 255 255 255 255 255 255 255  86 183 
 30 132 215 132  30 194 255 162  86  30  86 255 255 255 255 255 255 
255 255 255 255 255 233 183 215 183 215 215  30 255 255 255 255 255 
255 255 255 255 255 255 255 255 255 255 255 255 255  86 215 215 215 
215 215 128 255 255 255 255 255 255 255 255 255 255 255 255 255 255 
255 255 255 245  30 215 215 215 215 183  30 255 255 255 255 162  30 
 86  86 194 255 255 255 255 255 255 255 255 162  30 215 215 215 215 
 30 183 162 255 245  30 215 215 215 132 194 255 255 255 255 255 255 
255 255  30 183 215 215 215 215  86 215 215 132 183 215 215 215  30 
245 255 255 255 255 255 255 255 255 255  86 215 215 215 215 215 132 
215 215 215 215 215 183  30 255 255 255 255 255 255 255 255 255 255 
162 215 215 215 215 215 132 215 215 215 215 215  30 194 255 255 255 
255 255 255 255 255 255 255 255  30 215 215 215 215 215  86 215 215 
215 215  86 255 255 255 255 255 255 255 255 255 255 255 255 233 183 
215 215 215 215 215  86 215 215 215  86 255 255 255 255 255 255 255 
255 255 255 255 255 255  86 215 215 215 215 215 215  86 215 215  30 
128 255 255 255 255 255 255 255 255 255 255 255 255 255  30 215 215 
215 215 215 215 215 215  86 233 255 255 255 255 255 255 255 255 255 
255 255 255 255 255  30 215 215 215 215 215 215 215  86 194 255 255 
255 255 255 255 255 255 255 255 255 255 255 255 128 215 215 215 215 
215  30 132  86 245 255 255 255 255 255 255 255 255 255 255 255 255 
255 255 194  30 215 215 215 215 215 215 183  30 255 255 255 255 255 
255 255 255 255 255 255 255 255 255 255  86 132 215 215 215 215 215 
215  86 128 255 255 255 255 255 255 255 255 255 255 255 255 255 255 
255  30 215 215 215 215 215 215 215  30 245 255 255 255 255 255 255 
255 255 255 255 255 255 255 255 255 213 162 162 128  86  86  30  86 
162 255 255 255 255 255 255 255 255 255 255 255 255 