P2
# CREATOR: XV Version 3.10a  Rev: 12/29/94 (PNG patch 1.2)
25 25
255
255 255 255 255 255 255 255 255 255 255 255 255 255 255 255 255 255 
255 255 255 255 255 255 255 255 255 255 255 255 255 255 255 255 255 
255 255 255 255 255 255 255 255 255 255 255 255 255 255 255 255 255 
255 255 255 255 255 255 255 255 255 255 255 255 255 255 255 255 255 
255 255 255 255 255 255 255 255 255 255 255 255 255 255 255 255 255 
255 255 255   0 167   0   0 255 255 255 255 255 255 255 255 255 255 
255 255 255 255 255 255 255   0 162 171 171 164   0 160 162 162   0 
255 255 255 255 255 255 255 255 255 255 255 255 255 255 247   0   0 
  0   0   0 164 167 162   0  82   0 255 255 255 255 255 255 255 255 
255 255 255 255   0 167 162 162 162 162 167 167   0 167 167  66 167 
255 255 255 255 255 255 255 255 255 255 255   0 162 162 162 167 164 
162   0   0 255  24  24 255 255 255 255 255 255 255 255 255 255 255 
255 167 162 167 167 164 162   0 164 162 255 255 255 255 255 255 255 
255 255 255 255 255 255 255 255  17 162 168 162 162   0 167   0 164 
162 255 255 255 255 255 255   0 162 162   0 255 255 255 255 255 167 
167 162   0 162 167 167   0 162 162 255 255 255 255 255   0 162 168 
162   0 255 255 255 255   0 168 168 162   0 162 162 162 168 167 168 
  0 255 255 255   0 162 168 162   0 255 255 255 255 255   0 162 162 
164 162 162 167 167 162 162 164   0 255 255   0 167 162 162 167 255 
255 255 255 255 255   0 162 162 164 162 167 162 162 167 162 164 162 
  0 162 168 162 162   0 255 255 255 255 255 255 255   0 162 162 162 
162 167 162 167 162 167 167 167 167 162 167 164 164 255 255 255 255 
255 255 255 255   0 164 164 162 162 168 162 164 162 167 168 167 162 
162 162 162 162 255 255 255 255 255 255 255 255   0 162 162 162 162 
162 162 167 162 167 162 164 167 162 167 162 255 255 255 255 255 255 
255 255 255   0 167 162 162 164 167 164 164 162 162 162 162 167 162 
167   0 255 255 255 255 255 255 255 255 255   0 164 164 167 167 162 
164 167 162 167 162 164 168 162   0 255 255 255 255 255 255 255 255 
255 255 255 168 162 162 167 162 162 162 167 162 162 168   0   0 255 
255 255 255 255 255 255 255 255 255 255 255   0 167 162 162 162 167 
162 162 162   0 255 255 255 255 255 255 255 255 255 255 255 255 255 
255 255   0 167 162 168 162 164 171 162 162   0 255 255 255 255 255 
255 255 255 255 255 255 255 255 255 255  17 167 164 167 162 167 162 
167 162   0 255 255 255 255 255 255 255 255 255 255 255 255 255 255 
255 255   0   0 167 162 167 162 162 167 255 255 255 255 255 255 255 
255 255 255 255 255 255 255 255 255 255 255 255 255   0   0   0   0 
  0 255 255 255 255 255 255 255 255 255 255 255 255 