P2
# CREATOR: XV Version 3.10a  Rev: 12/29/94 (PNG patch 1.2)
25 25
255
255 255 255 255 255 255 255 255 255 255 255 255 255 255 255 255 255 
255 255 255 255 255 255 255 255 255 255 255 255 255 255 255 255 255 
255 255 255 254 255 219 199 198 255 250 255 255 255 255 255 255 255 
255 255 255 255 255 255 255 255 255 255 255 255 101 179 255 252 254 
250  69 255 255 255 255 255 255 255 255 255 255 255 255 255 255 255 
255 255  43 250 255 255 255 140 155 224 255  53 255 255 255 255 255 
255 255 255 255 255 255 243 249 252 145 129  87 192 248 251 238  77 
255  51  26  68 255 252 255 255 255 255 255 255 255 255 255 246  70 
120 255 255 255 238 251 253  88 255 255 252  57 252 255 255 255 255 
255 255 255 255 255 252  26  72 253 255 199  22 254 153 255 254 255 
142 236 255 255 255 255 255 255 255 255 255 255 255  37 201 255 255 
249  41 255  48 255 255 255 255 255 255 255 255 255 255 255 255 255 
255 253 255 255  55 254 254 249  73  29 255 255 255 255 255 255 255 
255 255 255 255 255 255 255 255 255 255 255 255 250 255 255 255 255 
125  41 250 252 255 255 251 253 255 253 255 254 255 255 255 255 255 
255 254  54 255 255 253 252 121  33  19 255 255 255 255 255 255 255 
122 164 255 255 255 255 255 255 255 249 255 255 254  26  25 138 255 
 86 233 251 255 255 255 109 255 255 255  49 255 255 255 255 255 245 
 51 255 255 255 255 255 255 253 248  56 237 255  74 114 251 255 255 
248 209 255 255 255 255 255 170 229 254 255 255 255 252 195 218 250 
252  42 249 255 255 254 255 214 253 253 255 255 255 255 255  82 255 
255 255 255 255 249  80 255 255 254 253 252 247 255 235 243 227 253 
250 255 255 255 254 198 255 247 249 255 255 255 253  89 255 255 254 
253 255 255 113  41 255 255 255 255 255 255 253 251  34 255 254 254 
255 255 255 138 219 255 254 250 255  41 219 255 247 255 255 255 255 
255 255 255 223 252 255 255 254 255 254 251  25 248 255 255 209  38 
255 255 255 255 255 255 255 255 255 255 255  25 250 255 255 255 249 
250  40 107 250 252 177 118 250 252 255 255 255 255 255 255 255 255 
255 252 202 238 255 255 255 250  84  30 149  24  71 235 251 252 255 
255 255 255 255 255 255 255 255 247  49 247 255 119 115  29  27  32 
 83 114 252 255 255 255 255 255 255 255 255 255 255 255 255 255 254 
 67 250 254 255 243 156 166  21  63 253 255 255 255 255 255 255 255 
255 255 255 255 255 255 253 255 255 196 255 255 171 255  99  27 254 
255 255 255 255 255 255 255 255 255 255 255 255 255 255 255 255 255 
213 255 245  22 254  25 178 248 255 255 255 255 255 255 255 255 255 
255 255 255 255 255 255 255 255 250 166  29  92 255 254 253 255 255 
255 255 255 255 255 255 255 255 255 255 255 255 255 