P2
# CREATOR: XV Version 3.10a  Rev: 12/29/94 (PNG patch 1.2)
25 25
255
255 255 255 255 255 255 255 255 255 255 255 255 255 255 255 255 255 
255 255 255 255 255 255 255 255 255 255 255 255 255 255 255 255 255 
255 255 255 255 255 255 255 255 255 255 255 255 255 255 255 255 255 
255 255 255 255 255 255 255 255 255 255 255 255 255 255 255 255 255 
255 255 255 255 255 255 255 255 255 255 255 255 255 255 255 255 255 
255 255 255 255 242 227 233 237 255 255 255 255 255 255 255 255 255 
255 255 255 255 255 255 255 255 255 255 255 178  92 153 166 173 170 
237 255 255 255 255 255 255 255 255 255 255 255 255 255 255 255 255 
255 255 139 166 156 158 132 146 139 182 255 255 255 255 255 255 255 
255 255 255 255 255 255 255 255 255 204 166 173 185 204 139 166 108 
 38 199 255 255 255 255 255 255 255 255 255 255 255 255 255 255 220 
 82 250 220 156 199 173 161 178 102 212 255 255 255 255 255 255 255 
255 255 255 255 255 255 212  51 139 173  51 108 220 242 227 178 246 
255 255 255 255 255 255 255 255 255 255 255 255 255 255 102 102 252 
 92 124 139 255 255 255 255 255 255 255 255 255 255 255 255 255 255 
255 255 255 255 220  82 233 255 124 166 227 255 255 255 255 255 255 
255 255 255 255 255 255 255 255 255 255 255 255 182 220 255 255  67 
124 246 255 255 255 237 190 190 233 255 255 255 255 255 255 255 255 
255 255 246 182 255 237 161 195 146 139 255 255 199 166 220 237 139 
242 255 255 255 255 255 255 255 255 255 195 185 255 254 227 252 227 
108 195 166 102 237 255 190 156 246 255 255 255 255 255 255 255 255 
246 139 242 255 255 252 212 252 220 132 220 220 212 199 185 250 255 
255 255 255 255 255 255 255 255 182 173 255 255 255 254 220 255 237 
170 255 220 102 139 254 255 255 255 255 255 255 255 255 255 246 124 
233 255 255 255 242 237 255 255 124 166 153 173 252 255 255 255 255 
255 255 255 255 255 255 204 173 255 255 255 255 166 255 255 173 139 
233 255 255 255 255 255 255 255 255 255 255 255 255 255 132 212 255 
255 255 252  82 212 146 102 250 255 255 255 255 255 255 255 255 255 
255 255 255 255 204 116 250 178 182 195  82  24 124 170 250 255 255 
255 255 255 255 255 255 255 255 255 255 255 255 170 220 255 158  38 
 82   0  24 255 255 255 255 255 255 255 255 255 255 255 255 255 255 
255 255 255 195 190 255 250 182 158   0 170 255 255 255 255 255 255 
255 255 255 255 255 255 255 255 255 255 255 250 146 233 233 173  24 
 38 252 255 255 255 255 255 255 255 255 255 255 255 255 255 255 255 
255 255 255 237 132 124 124 102 212 255 255 255 255 255 255 255 255 
255 255 255 255 255 255 255 255 255 255 255 255 237 227 242 255 255 
255 255 255 255 255 255 255 255 255 255 255 255 255 