P2
# CREATOR: XV Version 3.10a  Rev: 12/29/94 (PNG patch 1.2)
25 25
255
255 255 255 255 255 255 255 255 255 255 255 255 255 255 255 255 255 
255 255 255 255 255 255 255 255 255 255 255 255 255 255 255 255 255 
255 255 255 255 255 255 255 255 255 255 255 255 255 255 255 255 255 
255 255 255 255 255 255 255 255 255 255 255 255 255 255 255 255 255 
255 255 255 255 255 255 255 255 255 255 255 255 255 255 255 255 255 
255 255 255 255 255 255 255 255 255 255 255 255 255 255 255 255 255 
255 255 255 255 255 255 255 255 255 255 255 255 207 191 191 255 255 
255 255 255 255 255 255 255 255 255 255 255 255 255 255 255 255 255 
255 175   0   0   0   0  31  47  15  31 255 255 255 255 255 255 255 
255 255 255 255 255 255 255 255 159   0 191 127 127 127  63  15  15 
 47 111 255 255 255 255 255 255 255 255 255 255 255 255 191   0   0 
  0 207 255 255 255 207   0 207 239  15  15 255 255 255 255 255 255 
255 255 255 255 255  15   0   0 191 255 159  63  63  31   0  95 159 
 31 159 255 255 255 255 255 255 255 255 255 255 191   0  63 255 255 
 31 175  15 159 255 255 255 255 255 255 255 255 255 255 255 255 255 
255 255 191   0 207 255 255 255 143  79  79 255 255 255 255 255 255 
255 255 255 255 255 255 255 255 255 255  95  15 255 255 255 223 143 
  0 191 255 255 255 255 255 255 255 255 255 255 255 255 255 255 255 
 63  95 255 255 255 175   0 239   0 207 255 255 255 207  47 111  79 
  0  31 255 255 255 255 255 191   0 223 255 255 255 239 191 255 111 
 63 255 255 159  15  79 255 255 159   0 255 255 255 255 255   0 223 
255 255 255 255 239 159 255 255 207  31 159 239 255 255 191   0 111 
255 255 255 255 255 191 191 255 255 255 255 255 191  63 255 255 255 
255 255 255 255 159  79 255 255 255 255 255 255 255  95 255 255 255 
255 255 255 143  63 255 255 255 255 223 111  15  31 239 255 255 255 
255 255 255  95  31 255 255 255 255 255 239  15 175 255 255 239  47 
191 255 255 255 255 255 255 255 255 255 223   0 159 255 255 255 255 
255 111  31 255 255 239  47  47 255 255 255 255 255 255 255 255 255 
255  47 111 255 255 255 255 255 255 255 191 127   0  95 239 255 255 
255 255 255 255 255 255 255 255 143  31 255 255 255 255 255 255 223 
  0 143 255 255 255 255 255 255 255 255 255 255 255 255 255 255 127 
 31 255 255 255 255 255 255  79  47 255 255 255 255 255 255 255 255 
255 255 255 255 255 255 255 255 111   0 143 255 255 255 239  95 255 
255 255 255 255 255 255 255 255 255 255 255 255 255 255 255 255 255 
127   0 111 127 111  15 239 255 255 255 255 255 255 255 255 255 255 
255 255 255 255 255 255 255 255 255 255 255 255 255 255 255 255 255 
255 255 255 255 255 255 255 255 255 255 255 255 255 