P2
# CREATOR: XV Version 3.10a  Rev: 12/29/94 (PNG patch 1.2)
25 25
255
 33   2   2   2   2   2   2   2   2   2   7   2   9   2   2   2   2 
  2   2   2   2   2   2   2   2  33   2   2   2   2   2   2   2   2 
  2   2  45 102 106   2   2   2   2   2   2   2   2   2   2   2  33 
  2   2   2   2   2   2   2   2   2   2  74 120 120  24   2   2   2 
  2   2   2   2   2   2   2  33   2   2   2   2   2   2   2   2   2 
 16 118 130 127  24   2   2   2   2   2   2   2   2   2   2  33   2 
  2   2   2   2   2   2   2   2  78 124 141 120  12   2   2   2   2 
  2   2   2   2   2   2  33   2   2   2   2   2   2   2   2  16 118 
145 151 127   2   2   2   2   2   2   2   2   2   2   2  33   2   2 
  2   2   2   2   2   2  78 118 145 147 121   2   2   2   2   2   2 
  2   2   2   2   2  33   2   2   2   2   2   2   2  36 108 127 156 
133 111   2   2   2   2   2   2   2   2   2   2   2  33   2   2   2 
  2   2   2   2  78 118 141 156 124  78   2   2   2   2   2   2   2 
  2   2   2   2  33   2   2   2   2   2   2  78 108 145 159 156 124 
 45   2   2   2   2   2   2   2   2   2   2   2  33   2   2   2   2 
  2 118 133 159 176 168 151 111   2   2   2   2   2   2   2   2   2 
  2   2   2  33   2   2   2   2  92 141 156 176 176 163 141  36   9 
  2   2   7   2   2   2   2   2   2   2   2  33   2   7   2  92 137 
159 176 181 176 145 118 151 150 145 115  92  36   2   2   2   2   2 
  2   2  33   2   9  92 134 145 168 176 181 163 102 156 151 145 141 
141 151 141 130 111  16   2   2   2   2  92  78 108 134 150 159 176 
179 173 127 133 151 141 134  92 108 134 137 134 134 120 115   9   2 
  2 133 121 134 156 167 176 184 176 163 108  92  68  68  92 127 127 
 78  78  68  78 102 113 120  47   2 145 127 141 163 173 179 176 163 
159 127 124 145 151 156 156 141 108  92 120 134  78 102 102  92   9 
159 133 145 168 177 179 176 168 145 133 102  47  92 102  78 115 120 
153 120 102 102  92 102  78  13 153 137 151 168 177 184 176 168 151 
124  36   7   7   7   2   2   9  78 102  78  92 117 102  66   2 145 
137 159 168 179 177 168 173 151 130 108  30   7   2   2   2   2   2 
111 120 141 133 120  27   2 151 137 153 161 170 176 170 164 156 137 
118 108  23   2   2   9  68 111 117 127 127 124 115  16   2 145 133 
145 153 170 164 165 159 151 145 127 117 127 115 111 108 124 137 137 
130 124 102  74   2   2 145 137 137 148 153 161 157 153 151 137 137 
133 145 145 148 137 133 133 127 118  92  16   2   2   2 145 130 137 
148 153 153 153 157 151 151 137 151 151 151 137 133 124 111  92  89 
  7   2   2   2   2 137 130 130 137 137 148 151 137 137 137 137 137 
137 137 133 111 108  78   7   2   2   2   2   2   2 