P2
# CREATOR: XV Version 3.10a  Rev: 12/29/94 (PNG patch 1.2)
25 25
255
255 255 255 255 255 255 255 255 255 255 255 255 255 255 255 255 255 
255 255 255 255 255 255 255 255 255 255 255 255 255 255 255 255 255 
255 255 255 255 255 255 255 255 255 255 255 255 255 255 255 255 255 
255 255 255 255 255 255 255 255 255 255 255 255 255 255 160  30 228 
255 255 255 255 255 255 255 255 255 255 255 255 255 255 255 255 255 
255 255 255 255  30 188 215  86 120 255 255 255 255 255 255 255 255 
255 255 255 255 255 255 255 255 255 255 255 255  30 188 215 120  86 
255 255 255 255 255 255 255 255 255 255 255 255 255 255 255 255 255 
255 255 255  30 188 215 188  30 255 255 255 255 255 255 255 255 255 
255 255 255 255 255 255 255 255 255 228 238  30 188 215 188  30 255 
255 255 255 255 255 255 255 255 255 255 255 255 255 255 255 243  30 
188 154  30 188 215 154  86 255 255 255 255 255 255 255 255 255 255 
255 255 255 120  30  86  30 188 215 215  30 215 215 154  86 255 255 
255 255 255 255 255 255 255 255 255 255 255  86 215 215 215  30 215 
215  30 154 215 188  30 255 255 255 255 255 255 255 255 255 255 255 
228  30  30  30 154 215 215 120 215  86  86 215 188  30 255 255 255 
255 255 255 255 255 255 255 255  30 188 215 215  86 215 215  86  86 
 30  30  30  30  30 255 255 255 255 255 255 255 255 255 255 255  30 
188  86 215 215  30 215 120 215 215 215 215 215 188 228 255 255 255 
255 255 255 255 255 255 255 198  30 188  86  30  86 154 188  86  86 
 30 215 215 215  30 228 255 255 255 255 255 255 255 255 255 255  30 
215 215 215 215 215 215 215  86 120 215 215 215 188  30 255 255 255 
255 255 255 255 255 255 255  86 215 215 215 215 215 215 215 154 215 
 86 215 215 215  30 255 255 255 255 255 255 255 255 255 255 160 215 
215 215 215 215 215 188 188 215 215 215 215 215  30 255 255 255 255 
255 255 255 255 255 255 255  30 215 215 215 215 215 215 188 215 215 
215 215 154  86 255 255 255 255 255 255 255 255 255 255 255 120  86 
215 215 215 215 215  86 215 215 215 215 120  86 255 255 255 255 255 
255 255 255 255 255 255 255 120  86 215 215 215 215  30 188 215 215 
215 120  86 255 255 255 255 255 255 255 255 255 255 255 255 255 238 
154 215 215 215 215 215 215 215 215 215  86 255 255 255 255 255 255 
255 255 255 255 255 255 255 255  86  30 215 215 215 154 215 215 215 
215 154 255 255 255 255 255 255 255 255 255 255 255 255 255 255 255 
 86 215 215 215 215 215 215 215 215 215 198 255 255 255 255 255 255 
255 255 255 255 255 255 255 255 198 215 215 215 215 154  86  30  30 
120 255 255 255 255 255 255 255 255 255 255 255 255 255 255 255 255 
 86  86 160 198 243 255 255 255 255 255 255 255 255 