P2
# CREATOR: XV Version 3.10a  Rev: 12/29/94 (PNG patch 1.2)
25 25
255
255 255 255 255 255 255 255 255 255 255 255 255 255 255 255 255 255 
255 255 255 255 255 255 255 255 255 255 255 255 255 255 255 255 255 
255 255 255 255 255 255 255 255 255 255 255 255 255 255 255 255 255 
255 255 255 255 255 255 255 255 255 255 255 255 255 255   0 168   0 
255 255 255 255 255 255 255 255 255 255 255 255 255 255 255 255 255 
255 255 255 255   0 164 162 167 255 255 255 255 255 255 255 255 255 
255 255 255 255 255 255 255 255 255 255 255 255 162 162 167   0 255 
255 255 255 255 255 255 255 255 255 255 255 255 255 255 255 255 255 
255 247   0 162 162 162   0 255 255 255 255 255 255 255 255 255 255 
255 255 255 255 255 255 255 255 255   0 162 162 162 255 255 255 255 
255 255 255 255 255 255 255 255 255 255 255 255 255 255 255 255 255 
168 162 167 167 255 255 255 255 255 255 255 255 255 255 255 255 255 
255 255 255 255 255 255 255   0 164 162 162   0 255 255 255 255 255 
255 255 255 255 255 255 255 255 255 255 255 255 255 255 255 167 162 
167 167   0   0   0 255 255 255 255 255 255 255 255 255 255 255 255 
255 255 255 255 255   0 167   0   0 162 168 168 162 162 167   0 255 
255 255 255 255 255 255 255 255 255 255 255 255 255  49 162 164 167 
162 162 167 162 171 167 162 162 255 255 255 255 255 255 255 255 255 
255   0 168 162 162 162   0   0   0 255 255 255 255   0 167   0 162 
255 255 255 255 255 255 255 255   0 167   0   0 167 167 167 162 167 
255 255 255 255   0  66  50   0 255 255 255 255 255 255 255 255 167 
164 164 167 162 167   0 162 171   0 255 255 168 162 167 162 255 255 
255 255 255 255 255 255   0 162  67 162 168 168 162   0 162 164   0 
255 255 162 162 168   0 255 255 255 255 255 255 255   0 162 162 162 
171 162 167 162   0 162 162   0   0 162 164 164   0 255 255 255 255 
255 255 255 255   0 162 164 164 168 162 162 162   0 168   0 162 162 
167 162 164   0 255 255 255 255 255 255 255 255   0 162 168 164 164 
162   0 162  24 162 162 167 162 167 162 167 255 255 255 255 255 255 
255 255 255   0 167 162 167 162 167 162 167 162 162 162 164 167 162 
167   0 255 255 255 255 255 255 255 255 255 255   0 162 162 162 162 
162 162 167 162 167 164 162 162   0 255 255 255 255 255 255 255 255 
255 255 255 255   0 164 167 162 162 167 162 167 162 162   0 255 255 
255 255 255 255 255 255 255 255 255 255 255   0 167   0 162 167 162 
162 167 162 162 255 255 255 255 255 255 255 255 255 255 255 255 255 
255 255 255   0 167 167 162 167 162 162 162   0 255 255 255 255 255 
255 255 255 255 255 255 255 255 255 255 255 255 255 255   0   0   0 
169 168 255 255 255 255 255 255 255 255 255 255 255 