P2
# CREATOR: XV Version 3.10a  Rev: 12/29/94 (PNG patch 1.2)
25 25
255
255 255 255 255 255 255 255 255 255 255 255 255 255 255 255 246 249 
255 250 255 255 255 255 255 255 255 255 255 255 255 255 255 255 255 
255 255 248 255 252 241 253 255  59 229 243 255 255 255 255 255 255 
255 255 255 255 255 255 255 255 255 255 255 255 255 252 254 255 255 
156 255 253 255 255 255 248 255 255 255 255 255 255 255 255 255 255 
255 255 254 252  71 255 255 254 255  55 254 255 255 252 253 255 255 
255 255 255 255 255 255 255 255 255 251 252 251 123  25 196 254 251 
164 220 255 253 255 253 255 255 255 255 255 255 255 255 255 255 255 
254 255 253 241  34 253 251 249 255  34 255 255 254 255 255 255 255 
255 255 255 255 255 255 255 255 255 254 255 253 192 192 255 241 163 
154 204 253 255 254 255 255 255 255 255 255 255 255 252 255 252 255 
251 255 253 255  96 255 255 255 254 147 252 255 253 255 255 255 255 
255 255 255 250 248 196 121 240 255 247  45 239  35 255 255 255 254 
 23 238 255 255 255 255 255 255 253 255  38 239 255  40 255 251 254 
255 247 106 144 254 255 255 254 142  77 244 255 255 255 252 255 253 
140 252 253 255 194 251 252 251 255 255 133 248 255 250 233 149 151 
 35 255 253 255 255 252  56 221 253  27 255 253 247  27 227 255 251 
255 201 142 255 255 255 252 255 246 240 250 255 255 253 199 255 255 
210 164 255 123 213  23 255 255 251 255 155 254 255 255 254 255 251 
131 255 255 255 255  27 172 255 255  57 104 251 252 213  52 254 255 
186  27 246 255  41 254 255 255  22 255 255 255 255 155  97 255  49 
117  99 242 175 252  99  25 238 101  65  40  31 173 251 160 246  27 
255 255 255 255  54  86  25 120 215 217  24  31  74  23 146 251 253 
 27 146 250 246  30 254 255  29 255 255 255 252  83 254 255 255 254 
255 252  57 127 141 211 245 196 255 251 255 247 255  27 201 198 246 
255 255 254  33 167 255 252 249 110 255 200 255  17 255  34 119 251 
244 254  67  34 244 184 202 251 255 255 255 247  70 255 255 252 249 
159 255 255  60 246 255 249 184  53  79 250 249 249 244 144 253 255 
255 255 255 255  70 255 255 253 249 254 255  29 252 255 255 255 231 
255 255 251 254  61 186 255 255 255 254 250 254 196 195 254 255 255 
253 255 254  26 255 255 255 255 253 255 209  62 206 255 255 255 255 
255 255 251 255  32  30  72 140 142  82  31  19 121  57  19  31  23 
 28 228 250 249 255 254 255 255 255 253 255 255  90 145 249 255 255 
251  84 170 255 255 255  21  26  20 253 254 255 255 254 255 255 255 
252 255 207  78  87 248 253 251 252  80 192 252 255 255  87  27  28 
255 255 255 255 255 255 255 255 255 255 247 255 220  73  26 195 243 
 16 168 119  85  30  66 155 248 255 255 255 255 255 