P2
# CREATOR: XV Version 3.10a  Rev: 12/29/94 (PNG patch 1.2)
25 25
255
255 255 255 255 255 255 255 255 255 255 255 255 255 255 255 255 255 
255 255 255 255 255 255 255 255 255 255 255 255 255 255 255 255 255 
255 255 255 255 255 255 255 255 255 255 255 255 255 255 255 255 255 
255 255 255 255 255 255 255 255 255 255 255 255 246 227 227 254 255 
255 255 255 255 255 255 255 255 255 255 255 255 255 255 255 255 255 
255 255 242 170 178 178 204 255 255 255 255 255 255 255 255 255 255 
255 255 255 255 255 255 255 255 255 255 237 173 255 255 161 250 250 
255 255 255 255 255 255 255 255 255 255 255 255 255 255 255 255 255 
255 255 173 173 173 139 170 170 255 255 255 255 255 255 255 255 255 
255 255 255 255 255 255 255 255 255 255 182 170 170 255 158 158 242 
255 255 255 255 255 255 255 255 255 255 255 255 255 255 255 255 255 
255 212 116 116 212 108 108 204 255 255 255 255 255 255 255 255 255 
255 255 255 255 255 255 255 255 237 237 102 102 166 139 139 195 255 
255 255 255 255 255 255 255 255 255 255 255 220 220 158 146 146 255 
190 124 124 233 246 246 190 255 255 255 255 255 255 255 255 255 255 
255 237 132 132 212 178 178 255 220  67  67 156 153 153 161 255 255 
255 255 255 255 255 255 255 255 252 158 102 102 255 161 161 204 173 
102 102 246 233 233 185 242 255 255 255 255 255 255 255 255 255 237 
195 161 161 220 139 139 195 212 139 139 255 255 255 199 237 255 255 
255 255 255 255 255 255 255 204 108 204 204 108 139 139  67 132  51 
 51  67 199 199 170 204 255 255 255 255 255 255 255 255 255 246 116 
124 124  67  92  92 139 116 166 166  92 132 132 132 212 255 255 255 
255 255 255 255 255 255 233 146 170 170 173  92  92  38 146 132 132 
246 153 153 102 242 255 255 255 255 255 255 255 255 255 233 182 255 
255 220 102 102 102 139 246 246 255  82  82  67 250 255 255 255 255 
255 255 255 255 255 255 173 233 233 242 227 227 146 255 182 182 132 
255 255 161 227 255 255 255 255 255 255 255 255 255 255 195 161 161 
255 255 255 132 237 255 255 255 237 237 124 246 255 255 255 255 255 
255 255 255 255 255 246 116 116 212 242 242 173  67 173 173 190 132 
132 212 255 255 255 255 255 255 255 255 255 255 255 255 132 132  24 
102 102 132  38  38  38   0 146 146 255 255 255 255 255 255 255 255 
255 255 255 255 246 108 108 132 250 250 132 124 195 195   0 195 195 
255 255 255 255 255 255 255 255 255 255 255 255 255 250 250 139 124 
124  82  51 102 102 185 252 252 255 255 255 255 255 255 255 255 255 
255 255 255 255 255 255 255 242 242 233 237 250 250 255 255 255 255 
255 255 255 255 255 255 255 255 255 255 255 255 255 255 255 255 255 
255 255 255 255 255 255 255 255 255 255 255 255 255 