P2
# CREATOR: XV Version 3.10a  Rev: 12/29/94 (PNG patch 1.2)
25 25
255
255 255 255 255 255 255 255 255 255 255 255 255 255 255 255 255 255 
255 255 255 255 255 255 255 255 255 255 255 255 255 255 255 255 255 
255 255 255 255 255 255 207 191 239 255 255 255 255 255 255 255 255 
255 255 255 255 255 255 255 255 255 255 255 255 255  15 143 239  31 
111 255 255 255 255 255 255 255 255 255 255 255 255 255 255 255 255 
255 255 255 191   0 255 255 191   0 255 255 255 255 255 255 255 255 
255 255 255 255 255 255 255 255 255 255 255 239   0 207 255 239   0 
207 255 255 255 255 255 255 255 255 255 255 255 255 255 255 255 255 
255 255 255   0 191 255 255  15 175 255 255 255 255 255 255 255 255 
255 255 255 255 255 255 255 255 255 255 255  63 127 255 255  63 127 
255 255 255 255 255 255 255 255 255 255 255 255 255 255 255 255 207 
191 255  63 111 255 255 111  79 255 255 255 255 255 255 255 255 255 
255 255 255 255 255  95  31 223 111   0   0  63 255 255 127  47 255 
255 255 255 255 255 255 255 255 255 255  31  47 143  47 111 255 255 
239   0  15 255 255 191   0 255 255 255 255 255 255 255 255 255 255 
223   0 159 255 111  63 255 255 255  79  47 255 255 223   0 207 255 
255 255 255 255 255 255 255  15  79  63  47 255 223   0 191 255  63 
127 159 255 255 255  79  95 255 255 255 255 255 255 255 191   0 255 
255  47  63  31  31  47   0  15  15 127 207 255 255 143  31 255 255 
255 255 255 255 255 127   0 159 255 159   0   0 159 255 191 127 127 
 47   0 159 255 191   0 255 255 255 255 255 255 255 159   0  47  79 
255 127   0   0 143 255 255 255 255 255  47  15 175   0 255 255 255 
255 255 255 255 191   0 255 239  95 111 191  95  95  15   0  15 207 
255 255 159   0   0 255 255 255 255 255 255 255 191   0 207 255 255 
255 255 255 159   0 143  47  47 255 255 239  15  15 255 255 255 255 
255 255 255 255  47 127 255 255 255 255 255   0 159 255 255 255 255 
255 255  79  79 255 255 255 255 255 255 255 255 175   0 239 255 255 
255 255  63  95 255 255 255 255 255 191   0 207 255 255 255 255 255 
255 255 255 255  15 127 255 255 255 255 159  15 255 255 255 255 255 
 63  63 255 255 255 255 255 255 255 255 255 255 239  47  79 255 255 
255 255 255 255 255 255 111   0 159 255 255 255 255 255 255 255 255 
255 255 255 255 127  63 255 255 255 255 255 255 255 255  63  63 255 
255 255 255 255 255 255 255 255 255 255 255 255 127  63 255 255 255 
255 255 255 255 255  63  63 255 255 255 255 255 255 255 255 255 255 
255 255 255 127  15 143 207 255 255 255 239 191 111  15  79 255 255 
255 255 255 255 255 255 255 255 255 255 255 255 255 255 207 191 191 
191 191 239 255 255 255 255 255 255 255 255 255 255 