P2
# CREATOR: XV Version 3.10a  Rev: 12/29/94 (PNG patch 1.2)
25 25
255
  7  11   7   7   7   7   7   7   7   7   9  11   7   7   7   7  13 
  7   7   7   7   7   7   7   7   2   2   2   2   2   2   2   2   2 
 23  58  74  78  27 102 102  16   2   2   2   2   2   2   2   2   2 
  2   2   2   2   2   2   7   2 102 118 133 134  92 118 118 108   9 
  7   2   2   2   2   2   2   2   2   2   2   2   2  58  92  92 121 
186 192 150 124 159 163 151 130   2   7   2   2   2   2   2   2   2 
  2   2   2  47 145 170 159 108 166 164 147 127 179 179 168 130   2 
  2   2   2   2   2   2   2   2   2   2   7  23 124 186 167  81 124 
156 141 113 134 148 137 111   9   2   2   2   2   2   2   2   2   2 
  2   2   9 124 161 164  78 127 177 157 102 113 153 161 111   7   2 
  2   2   2   2   2   2   2   2 102 150 163 108 148 184 128 124 157 
159 124  92 148 164 118   2   2   2   2   2   2   2   2   2  36 130 
194 186 102 137 181 137  48 130 113 183 183 102 102 151  23   7   2 
  9   2   2   2   2   2  58 130 148 164 146  81 102 169 189 177 173 
184 176 179 171 156  78   2   2   2   2   2   2   2   2  92  68 145 
177 145 184 176 187 179 177 166 171 173 183 184 166 127   2   2   2 
  2   2   2   2   2  78 151 134 164 142 192 179 183 184 176 176 176 
177 181 189 156 156 184  45   2   2   2   2   2   2  92 147 137 102 
162 183 179 176 179 189 176 177 166 134 141 163 179 210 184  58   7 
  2   2   2   2 102 151 177 184 176 176 183 189 194 162 164 175 181 
159 173 182 220 220 210 192 109   9   2   2   2 111 151 176 176 167 
181 197 195 184  59 167 186 189 192 168 192 201 210 220 201 177  16 
  2   7   2  92 153 173 191 189 189 195 189 195  59  48 134 151 168 
168 184 184 182 201 217 197 153   2   2   2  78 153 176 189 192 189 
195 197 197 189 102  68  48  59  81  68 102 156 195 201 194 180 121 
  2   2  27 137 173 181 189 189 189 197 201 201 173 166 159 151 156 
179 117 141 182 201 197 184 159   2   2   9 130 158 176 181 189 192 
189 201 195 166 156 162 151 179 184 195 165 184 181 176 170 159   2 
  2   2 102 145 167 173 183 183 189 189 166 156 147 162 166 189 176 
189 184 210 184 168 163 153   2   2   2  58 130 156 173 173 179 179 
177 151 151 151 153 181 156 197 164 184 168 163 151 137  30   2   2 
  2   9 102 137 151 167 167 171 161 151 151 145 163 156 153 168 148 
168 137 133 111   2  30   2   2   2   9  58 118 141 151 162 162 161 
147 134 156 137 148 161 121 170 137 121  92   2   7  24   2   2   2 
  2   2  74 111 134 134 151 142 145 141 133 133 118 130 130 130 102 
 64   2   2  17  17   2   2   2   2   2   9  92 117 134 134 134 127 
130 141 118 111 127 118 111  92  30   7  11  17  24 