P2
# CREATOR: XV Version 3.10a  Rev: 12/29/94 (PNG patch 1.2)
25 25
255
255 255 255 255 255 255 255 255 255 255 255 255 255 255 255 255 255 
255 255 255 255 255 255 255 255 255 255 255 255 255 255 255 255 255 
255 255 255 255 255 255 255 255 255 255 255 255 255 255 255 255 255 
255 255 255 255 255 255 255 255 255 255 255 255 255 255 255 255 255 
255 255 255 255 255 255 255 255 255 255 255 255 255 255 255 255 222 
 73  45  45 255 255 255 255 255 255 255 255 255 255 255 255 255 255 
255 255 255 222  45  45  11  11 215 215 215  99 154 115 154  45 255 
255 255 255 255 255 255 255 255 255 255 255  45 154 215 215 215  99 
215 215  99  11 215 215 188 222 255 255 255 255 255 255 255 255 255 
255 255  11  73  45 215 215  73 115 215 215  45 215 215 154 255 255 
255 255 255 255 255 255 255 255 222  45 154 215 215  45 215 188  45 
215 215  45 215 215  73 255 255 255 255 255 255 255 255 255 255 194 
 73  11 115 215 154  45 215  73  73  99  11  45  11  99 255 255 255 
255 255 255 255 255 255 255 222  45 215 188  45  45 154  45 188 215 
215 215 215 215  99 255 255 255 255 255 255 255 255 255 255 255  99 
215 215 215 215 215  45 188 215 215 215 115 215 215  11 222 255 255 
255 255 255 255 255 255 255 194 215 215 215 215 215 215 115  45  11 
 11  45  45 188 188  45 255 255 255 255 255 255 255 255 255 222 215 
215 215 215 215 215 215 215 154 215 154 215 215 215 154 255 255 255 
255 255 255 255 255 255 255 188 215 215 215 215 215 215  45 215 215 
215 215 215 215  99 255 255 255 255 255 255 255 255 255 255 115 215 
215 215 215 215 188  45 215 215 215 215 215 215  45 255 255 255 255 
255 255 255 255 255 255  73 215 215 215 215 215 188  45 215 215 215 
215 215 188  45 255 255 255 255 255 255 255 255 255 255  45 188 215 
215 215 215 215  73 215 215 215 215 215 115  73 255 255 255 255 255 
255 255 255 255 255 194  45 215 215 215 215 215 215  73 215 215 215 
215  99 115 255 255 255 255 255 255 255 255 255 255 255 154  45 215 
215 215 215 215 215 215 215 215 215  11 115 255 255 255 255 255 255 
255 255 255 255 255 255 115 215 215 215 215 215 215 215 215 215 215 
115  99 255 255 255 255 255 255 255 255 255 255 255 255 255  45 154 
215 215 215 215 215 215 215 215 188  45 255 255 255 255 255 255 255 
255 255 255 255 255 255  45 188 215 215 215 215 215 215 215 215 215 
 73 255 255 255 255 255 255 255 255 255 255 255 255 255 222  45 215 
215 215 215 215 215 215 215 215 215 154 255 255 255 255 255 255 255 
255 255 255 255 255 255 154 215 215 215 188 154  45  45  45 115 194 
255 255 255 255 255 255 255 255 255 255 255 255 255 255 222  99 154 
194 255 255 255 255 255 255 255 255 255 255 255 255 