P2
# CREATOR: XV Version 3.10a  Rev: 12/29/94 (PNG patch 1.2)
25 25
255
255 255 255 255 255 255 255 255 255 255 255 255 255 255 255 255 255 
255 255 255 255 255 255 255 255 255 255 255 255 255 255 255 255 255 
255 255 255 255 255 255 255 255 255 255 255 255 255 255 255 255 255 
255 255 255 255 255 255 255 255 255 255 255 255 255 255 255 255 255 
255 255 255 255 255 255 255 255 255 255 255 255 255 255 255 255 255 
255 255 255   0 167   0   0   0   0 255 255 255 255 255 255 255 255 
255 255 255 255 255 255 255 255   0 162   0 172 171 162 162   0 167 
  0 255 255 255 255 255 255 255 255 255 255 255 255 255   0 167   0 
162 168 162   0 162 171 167   0 167   0 255 255 255 255 255 255 255 
255 255 255 255 162 164 167 162   0 162 162 162   0 162   0   0 162 
  0 255 255 255 255 255 255 255 255 255 255 167 162 167 162 162 164 
162 162 167   0 162 164   0 167 167   0 255 255 255 255 255 255 255 
255 255 167 162   0 167 167 167   0 164 168   0 162 162   0 167   0 
255 255 255 255 255 255 255 255 255   0 167 162 162   0 162 167   0 
167   0   0   0   0   0 164 255 255 255 255 255 255 255 255 255   0 
162 162 162 162 164 162 164   0 162 162  50 162 162 162 162 255 255 
255 255 255 255 255 255 255   0 162 162 162 162 162   0 167   0   0 
  0   0   0   0   0   0 255 255 255 255 255 255 255 255 255   0 162 
162 167 162 168 162 162 167 164   0 167 164 167 162 162   0 255 255 
255 255 255 255 255 255   0 162 167 162 162 162 162 167  57   0 162 
162 162 162 162 167   0 255 255 255 255 255 255 255 255   0 164 162 
167 162 162   0 162 162 167 167 167   0 167 162 164 169   0 255 255 
255 255 255 255 255   0 162 167 167 162 164 162 164 162 167 167   0 
171 162 162 167 162   0 255 255 255 255 255 255 255 255   0 164 164 
162 168 167 162 168 162   0 162 162 164 162 162   0 255 255 255 255 
255 255 255 255 255   0 162 162 162 164 162 162 162 162 167 162 162 
168 167   0 255 255 255 255 255 255 255 255 255   0 162   0 162 162 
162 168 168 162 162 162 167 162 167   0 255 255 255 255 255 255 255 
255 255 255   0 162 162   0 164 162 162 162 162 164 162 167   0   0 
255 255 255 255 255 255 255 255 255 255 255 162 162 167 167 167 162 
164 162 168 162   0 255 255 255 255 255 255 255 255 255 255 255 255 
255 255   0 168 167 162 167 162 167 167 167 162  49 255 255 255 255 
255 255 255 255 255 255 255 255 255 255 255 255   0 162 167 164 167 
162 167 164 255 255 255 255 255 255 255 255 255 255 255 255 255 255 
255 255 255 255 255 255   0   0   0 162   0 255 255 255 255 255 255 
255 255 255 255 255 255 255 255 255 255 255 255 255 255 255 255 255 
255 255 255 255 255 255 255 255 255 255 255 255 255 