P2
# CREATOR: XV Version 3.10a  Rev: 12/29/94 (PNG patch 1.2)
25 25
255
255 255 255 255 255 255 255 255 255 255 255 255 255 255 255 255 255 
255 255 255 255 255 255 255 255 255 255 255 255 250 255 255 255 254 
253 255 251 255 170 140 181 255 255 255 254 253 244 255 255 255 255 
255 255 255 250 253 250 247  89  44 245  73 240 255 251 249 100  27 
 99 140 107 222 255 255 255 255 255 255 255 250 246 185 191 255 255 
111 243 253 252 255 251 255 153 255 253 251 103 255 252 255 255 252 
255 255 251 193  86 255 255 252 250 240  58 255 255 247 255 255  44 
255 252 255 191 255 255 255 254 251 255  68 219 255 215 213 255 255 
255 255  54  79 207  72 137 232 255 245 230  31 250 255 251 254 255 
250 234 251 252 254 170  53 247 103 216 243  39 255 254 253 255 253 
253 253  25 254 255 254 255 255 172 113 249 255 255 133 244  54 255 
249 107  26 214  27  47 102 168  28  37  21 254 255 253 253 249  38 
253  28  33 255 248 255 108  51 150 255 252  60 195 145  32  58 242 
242 123 255 255 255 254 134  42 223 255 207  72 255 255 183  78  90 
 25  31 101 135 142  19  29  17  33 255 255 255 253 255  34 255 254 
253 255 255 166  24  32  86 253 250 107 171 255 255 182 197 255 167 
121 255 253 255 255  32 188 187 121 222 253 255 255  67 220 103 124 
187 255 249 255 255 255 251 255 197  26 255 249 255  31 141 249 254 
255 249 255 240 133  92  29  56 115 212 255 255 255 255 255 255 252 
150 255 255 248  54 163 255 250 255 250 148 250 255 255 253  58 253 
249 255  99  33 229 255 255 253 112 221 255 255  98 133 255 252 255 
250 255 255 255 246  63 255 252 255 252 248 255 250 255 255 155  28 
255 252 254 193  39 253 255 255 255 252 248 251 145  30 255 255 248 
255 255 255 255 255 254  20 210 251 255 255 255 132 166 255 251 255 
255 253 255 252 106 224 254 255 252 252 254 255 253  44 239 255 255 
255 253 255 255  35 253 253 249 255 255 254 255 254  44 210 255 253 
251 250 255 246  30 254 255 255 255 255 254 250 205  91 241 250 255 
255 252 255 255 255 196  23  57  76  27  39 157 255 255 255 255 255 
255 255 255 253 245  65  28  85  80  24  34  21  38 134 243 117  31 
 23 249 253 255 253 253 255 255 255 255 255 255 255 187 168  29  21 
175  29  28  32 147 249 143  28  26 255 255 254 255 255 255 255 255 
255 255 255 251 134 255 255 255 252  92  68  26  76 255 129  38  27 
255 255 252 253 255 255 255 255 255 255 255 207  24 255 255 255 255 
 84  22  88  28 255  74  36  55 255 255 255 255 255 255 255 255 255 
255 255 145  32 243 251 255 252 129  30  23  26 200  29  82 251 255 
255 255 255 255 255 255 255 255 255 252 255 255 254 251 183  61  96 
155 255 255 254 250 255 255 255 255 255 255 255 255 