P2
# CREATOR: XV Version 3.10a  Rev: 12/29/94 (PNG patch 1.2)
25 25
255
255 255 255 255 255 255 255 255 255 255 255 255 255 255 255 255 255 
255 255 255 255 255 255 255 255 255 255 255 255 255 255 255 255 255 
255 255 255 255 255 255 255 255 255 255 255 255 255 255 255 255 255 
255 255 255 255 255 255 255 255 255 255 255 255 255 255 255 255 255 
255 255 255 255 255 255 255 255 255 255 255 255 255 255 255 255 255 
255 255 255 255 255 255 255 255 255 255 255 255 255 255 255 255 255 
255 255 255 255 255 255 255 255 255 255 254 242 255 255 255 255 255 
255 255 255 255 255 255 255 255 255 255 255 255 255 255 252 212 212 
212 173 185 170 195 195 227 255 255 255 255 255 255 255 255 255 255 
255 255 255 255 254 185 156 108 108 220 255 132 190 190 190 250 255 
255 255 255 255 255 255 255 255 255 255 255 255 227 156 254 220 220 
153 242 227 204 204 212 220 255 255 255 255 255 255 255 255 255 255 
255 246 246 182 199 185 233 233 132 178 227 220 220 212 153 255 255 
255 255 255 255 255 255 255 255 255 242 242 199 255 190 170 170 199 
158 156 146 146 124 132 255 255 255 255 255 255 255 255 255 255 255 
212 212  92 146 233 124 124 116  67  67  38  38  67 182 255 255 255 
255 255 255 255 255 255 255 255 185 185 212 182 116  51  51  92 108 
178  67  67  92 242 255 255 255 255 255 255 255 255 255 255 255 185 
185 220 220 146  38  38 132 178 255 255 255 195 139 252 255 255 255 
255 255 255 255 255 255 255 170 170 185 242 220 132 132  92 124 139 
190 190 255 178 237 255 255 255 255 255 255 255 255 255 255 190 190 
242 255 227 255 255 146 199 108 124 124 255 156 233 255 255 255 255 
255 255 255 255 255 255 195 195 227 255 255 220 220 108 255 252 242 
242 212 116 252 255 255 255 255 255 255 255 255 255 255 212 212 178 
255 255 237 237 124 255 255 255 255 139 190 255 255 255 255 255 255 
255 255 255 255 255 242 242 116 242 255 255 255 178 156 233 185 185 
116 250 255 255 255 255 255 255 255 255 255 255 255 255 255 190 139 
212 166 166 116  92  24 102 102 242 255 255 255 255 255 255 255 255 
255 255 255 255 255 255 255 102  67  82  82   0 204  67 124 124 255 
255 255 255 255 255 255 255 255 255 255 255 255 255 255 252 132 242 
212 212  38 199  67 132 132 255 255 255 255 255 255 255 255 255 255 
255 255 255 255 255 242  92 237 227 227  24 124  82 182 182 255 255 
255 255 255 255 255 255 255 255 255 255 255 255 255 252 153 124 139 
139  67 116 220 255 255 255 255 255 255 255 255 255 255 255 255 255 
255 255 255 255 255 255 250 227 227 250 255 255 255 255 255 255 255 
255 255 255 255 255 255 255 255 255 255 255 255 255 255 255 255 255 
255 255 255 255 255 255 255 255 255 255 255 255 255 