P2
# CREATOR: XV Version 3.10a  Rev: 12/29/94 (PNG patch 1.2)
25 25
255
255 255 255 255 255 255 255 255 255 255 255 255 255 255 255 255 255 
255 255 255 255 255 255 255 255 255 255 255 255 255 255 255 255 255 
255 255 255 255 255 255 255 255 255 255 255 255 255 255 255 255 255 
255 255 255 255 255 255 255 255 255 255 255 255 255 255 255 255 255 
255 255 255 255 255 255 255 255 255 255 255 255 255 255 255 255 255 
255 255 255 239 159 127 143 239 255 255 255 255 255 255 255 255 255 
255 255 255 255 255 255 255 239 191 207 223  15   0  63   0  47 159 
127 191 255 255 255 255 255 255 255 255 255 255 255 255  95  31 239 
207  47  47 239 255 255 111  31 255 143  15 239 255 255 255 255 255 
255 255 255 255 255  31 127 255 255 207  15  95 255 255 223   0 207 
255  31 143 255 255 255 255 255 255 255 255  79  31 175 127   0  47 
239 255  79  31 255 255  95  79 255 127  63 255 255 255 255 255 255 
255 255   0 159 255 255 159  15  79 255 223   0 207 255 127  95 255 
127  63 255 255 255 255 255 255 255 191   0 239 223 255 255 175   0 
175 255  47 143 255 159 127 255 127  63 255 255 255 255 255 255 255 
127  63 255 159   0  95 255 207   0  95  31   0   0   0   0  15   0 
191 255 255 255 255 255 255 255  79  95 255 255 175  15  31  31   0 
  0  15 111 191 159 111  15  31 239 255 255 255 255 255 255 255  63 
127 255 255 255 255 255  15  95 255 255 255 255 255 255 255 191   0 
191 255 255 255 255 255 255  79  79 255 255 255 255 255 175  15  15 
 63 127 127 127 191 255 255  47 111 255 255 255 255 255 255 143  31 
255 255 255 255 255 255  79  63 255 255 255 255 255 255 255  31 127 
255 255 255 255 255 255 191   0 239 255 255 255 255 255   0 159 255 
255 255 255 255 255 207   0 207 255 255 255 255 255 255 255  79 111 
255 255 255 255 255  47  95 255 255 255 255 255 223   0 159 255 255 
255 255 255 255 255 255 159  31 255 255 255 255 255 143  63 255 255 
255 255 255  63  31 255 255 255 255 255 255 255 255 255 239  15 143 
255 255 255 255 255 255 255 255 255 207  63   0 191 255 255 255 255 
255 255 255 255 255 255 191   0 191 255 255 255 255 255 255 255 191 
  0 255 255 255 255 255 255 255 255 255 255 255 255 255 191   0 191 
255 255 255 255 255 255 255 191   0 255 255 255 255 255 255 255 255 
255 255 255 255 255 191   0 191 255 255 255 255 255 255 255 191   0 
255 255 255 255 255 255 255 255 255 255 255 255 255 207   0  79 175 
239 255 255 255 191 143  63   0 255 255 255 255 255 255 255 255 255 
255 255 255 255 255 255 255 239 191 191 191 191 207 255 255 255 255 
255 255 255 255 255 255 255 255 255 255 255 255 255 255 255 255 255 
255 255 255 255 255 255 255 255 255 255 255 255 255 